# xmcd
#
# Track frame offsets:
#	151
#	17609
#	34874
#	59495
#	80339
#	97091
#	111754
#	129287
#	147950
#	165101
#
# Disc length: 2349 seconds
# Revision: 0
# Processed by: cddbd v1.5.2PL0 Copyright (c) Steve Scherf et al.
# Submitted via: dBpowerAMP V12.0
#
DISCID=78092b0a
DTITLE=王若琳 - Joanna and 王若琳
DYEAR=2009
DGENRE=Blues
TTITLE0=Tikiville
TTITLE1=Maybe Some Other Time （英文版）
TTITLE2=Vincent
TTITLE3=一种念头
TTITLE4=我的爱
TTITLE5=Times Of Your Life
TTITLE6=Tikiville (中文版)
TTITLE7=Aubrey
TTITLE8=Maybe Some Other Time (中文版)
TTITLE9=玫瑰玫瑰我爱你
EXTD=
EXTT0=
EXTT1=
EXTT2=
EXTT3=
EXTT4=
EXTT5=
EXTT6=
EXTT7=
EXTT8=
EXTT9=
PLAYORDER=
